<svg width="250" height="250" viewBox="0 0 250 250" fill="none" xmlns="http://www.w3.org/2000/svg">
<g clip-path="url(#clip0_2907_26179)">
<path fill-rule="evenodd" clip-rule="evenodd" d="M52.0373 122.292C51.1645 109.055 52.6982 96.8835 54.3721 89.7524L52.425 89.2954C50.7083 96.6087 49.1552 108.979 50.0416 122.423C50.9276 135.86 54.2572 150.472 62.3972 162.179L64.0393 161.037C56.186 149.743 52.9105 135.535 52.0373 122.292Z" fill="#757575"/>
<path fill-rule="evenodd" clip-rule="evenodd" d="M61.2878 62.1882C63.0626 62.4368 65.1793 63.3344 67.598 65.3225C71.2302 68.3082 73.0974 71.6006 73.495 74.2577C73.693 75.5805 73.5246 76.714 73.0761 77.5953C72.6339 78.4642 71.8881 79.1525 70.7976 79.5586C70.28 79.7514 70.0167 80.3272 70.2095 80.8447C70.4022 81.3623 70.978 81.6256 71.4956 81.4329C73.8809 80.5446 76.3253 81.1515 78.1788 82.8141C80.0388 84.4825 81.2986 87.2242 81.1562 90.5386C81.0381 93.2865 79.9712 94.7183 78.4666 95.446C76.8535 96.2261 74.533 96.2992 71.7622 95.7972C66.2614 94.8007 59.661 91.6676 55.2352 89.0475C53.3581 87.8098 51.2474 86.5898 49.1367 85.3698C48.4453 84.9701 47.7538 84.5705 47.0706 84.1702C44.267 82.5276 41.5815 80.8639 39.4209 79.0752C37.252 77.2797 35.7093 75.4361 35.0633 73.4685C34.436 71.558 34.6089 69.3908 36.1663 66.8006C37.3621 64.8118 38.8174 63.7518 40.3073 63.2787C41.8147 62.8 43.4496 62.8936 45.0248 63.3779C46.6014 63.8627 48.0716 64.726 49.2068 65.7152C50.3623 66.7222 51.0733 67.7727 51.2849 68.5826C51.4175 69.0903 51.9201 69.4091 52.436 69.3128C52.9518 69.2165 53.3055 68.7378 53.246 68.2164C53.1917 67.7409 53.3976 66.8208 54.035 65.7626C54.6516 64.739 55.5969 63.7169 56.819 63.0177C58.0289 62.3254 59.5225 61.9409 61.2878 62.1882ZM74.5329 79.0646C74.6511 78.8842 74.7597 78.6966 74.8586 78.5024C75.5329 77.1773 75.7193 75.6071 75.473 73.9617C74.9822 70.6824 72.7647 66.9805 68.868 63.7775C66.2389 61.6164 63.7893 60.5191 61.5653 60.2075C59.3317 59.8946 57.3939 60.3845 55.8258 61.2818C54.2698 62.172 53.0905 63.4545 52.3218 64.7307C52.153 65.0108 52 65.2978 51.8655 65.5868C51.471 65.1029 51.0155 64.6386 50.5208 64.2075C49.1906 63.0482 47.4765 62.0394 45.6126 61.4663C43.7473 60.8927 41.6853 60.7427 39.702 61.3725C37.7013 62.0078 35.8722 63.4084 34.4522 65.77C32.6448 68.7761 32.3264 71.5443 33.1631 74.0924C33.981 76.5835 35.8577 78.7219 38.1455 80.6158C40.4415 82.5165 43.25 84.2498 46.0596 85.8958C46.7684 86.3111 47.4763 86.7203 48.1774 87.1256C50.2819 88.3421 52.3258 89.5236 54.154 90.7302C54.1674 90.7391 54.1811 90.7476 54.195 90.7559C58.7017 93.4262 65.5535 96.705 71.4057 97.7652C74.3156 98.2924 77.1502 98.3042 79.3374 97.2465C81.6329 96.1363 83.0113 93.9537 83.1544 90.6244C83.3207 86.7537 81.8493 83.4198 79.5143 81.3253C78.1033 80.0596 76.3752 79.2503 74.5329 79.0646Z" fill="#757575"/>
<path fill-rule="evenodd" clip-rule="evenodd" d="M48.1143 106.897C45.1031 106.916 41.3436 106.026 38.3885 104.646C36.5988 103.811 35.2343 102.855 34.5128 101.931C34.1592 101.478 33.9999 101.084 33.9685 100.755C33.9392 100.448 34.0119 100.11 34.2936 99.7209C34.6497 99.2287 35.3679 98.9709 36.7777 99.3031C38.1502 99.6264 39.8326 100.448 41.561 101.543C43.2749 102.629 44.9695 103.941 46.3564 105.183C47.0432 105.799 47.6369 106.381 48.1143 106.897ZM37.2363 97.3563C35.5833 96.9669 33.7604 97.0456 32.6732 98.5487C32.1359 99.2914 31.8974 100.106 31.9776 100.945C32.0557 101.763 32.4267 102.509 32.9365 103.162C33.9419 104.449 35.6376 105.569 37.5425 106.459C41.3539 108.238 46.5243 109.327 50.2199 108.735C50.5489 108.682 50.83 108.469 50.9697 108.166C51.1093 107.864 51.0891 107.512 50.9158 107.227C50.33 106.265 49.1291 104.982 47.6907 103.694C46.2304 102.386 44.4481 101.005 42.6313 99.8537C40.829 98.712 38.9266 97.7545 37.2363 97.3563Z" fill="#757575"/>
<path fill-rule="evenodd" clip-rule="evenodd" d="M55.0876 130.773C56.8152 128.307 59.7173 125.757 62.5528 124.145C64.27 123.17 65.8397 122.611 67.0107 122.557C67.5847 122.531 67.998 122.629 68.2842 122.794C68.5516 122.948 68.785 123.202 68.9395 123.658C69.1347 124.233 68.9291 124.968 67.8422 125.925C66.7841 126.857 65.1399 127.753 63.2466 128.529C61.3692 129.298 59.318 129.92 57.5024 130.332C56.6032 130.536 55.7849 130.683 55.0876 130.773ZM69.1641 127.426C70.4386 126.303 71.4296 124.771 70.8334 123.015C70.5387 122.147 70.0122 121.48 69.2816 121.06C68.5698 120.651 67.747 120.521 66.9195 120.559C65.2876 120.634 63.3925 121.368 61.5647 122.406C57.9076 124.484 54.0267 128.07 52.3701 131.426C52.2227 131.725 52.2337 132.078 52.3995 132.367C52.5653 132.656 52.8642 132.843 53.1966 132.866C54.32 132.946 56.0617 132.709 57.9449 132.282C59.8566 131.848 62.0146 131.195 64.0048 130.379C65.979 129.571 67.8609 128.574 69.1641 127.426Z" fill="#757575"/>
<path fill-rule="evenodd" clip-rule="evenodd" d="M70.6198 58.5816C69.1181 60.1768 67.7734 62.043 67.0776 63.5733L68.8982 64.4011C69.4744 63.1339 70.6682 61.4479 72.076 59.9525C73.5027 58.437 75.0058 57.2709 76.1471 56.877L75.4946 54.9864C73.88 55.5437 72.1026 57.0065 70.6198 58.5816ZM60.5739 57.4758C60.7121 58.7521 60.6523 60.0111 60.4716 60.8671L62.4284 61.2803C62.6609 60.1794 62.7185 58.7037 62.5622 57.2605C62.4075 55.8314 62.0288 54.2999 61.288 53.1624L59.6121 54.254C60.1062 55.0125 60.4341 56.1853 60.5739 57.4758ZM71.5149 65.3978C71.1554 65.4536 70.7723 65.513 70.3611 65.5754L70.6613 67.5528C71.0669 67.4912 71.4421 67.4333 71.7913 67.3793C75.1075 66.8672 76.0776 66.7174 78.5452 67.2384L78.9584 65.2816C76.1238 64.6831 74.8164 64.8858 71.5149 65.3978Z" fill="#757575"/>
<path d="M72.6044 54.2303C72.205 56.1216 73.4145 57.9785 75.3058 58.3779C77.1971 58.7772 79.054 57.5677 79.4534 55.6764C79.8527 53.7852 78.6433 51.9282 76.752 51.5289C74.8607 51.1295 73.0037 52.339 72.6044 54.2303Z" fill="#757575"/>
<path d="M56.9495 50.9251C56.5502 52.8164 57.7597 54.6733 59.6509 55.0727C61.5422 55.472 63.3992 54.2626 63.7985 52.3713C64.1979 50.48 62.9884 48.623 61.0971 48.2237C59.2058 47.8243 57.3489 49.0338 56.9495 50.9251Z" fill="#757575"/>
<path d="M76.409 65.2542C76.0096 67.1455 77.2191 69.0024 79.1104 69.4018C81.0017 69.8011 82.8586 68.5917 83.258 66.7004C83.6573 64.8091 82.4479 62.9521 80.5566 62.5528C78.6653 62.1534 76.8083 63.3629 76.409 65.2542Z" fill="#757575"/>
<path fill-rule="evenodd" clip-rule="evenodd" d="M63.148 37.9205C65.7723 40.6328 67.6282 44.62 68.3589 48.1237C68.4341 48.4847 68.702 48.7749 69.0558 48.8789C69.4096 48.9829 69.7919 48.8838 70.0505 48.6209C71.6886 46.9565 75.3073 44.3 79.5475 43.3382C83.7049 42.3951 88.4734 43.065 92.7054 48.0407C96.6995 52.7367 98.4278 57.3884 98.0187 61.2578C97.6173 65.0546 95.1289 68.3497 90.0949 70.3598C89.616 70.551 89.361 71.075 89.5061 71.5698C89.6511 72.0646 90.1487 72.368 90.655 72.2704C91.2739 72.1511 92.4968 72.2305 94.0384 72.6712C95.5472 73.1024 97.2504 73.8488 98.8071 74.9468C101.896 77.1258 104.375 80.6482 103.73 85.9312C103.391 88.715 102.371 90.6863 100.953 92.086C99.5233 93.4968 97.6207 94.3937 95.4155 94.8979C90.9746 95.9132 85.5312 95.2862 81.0014 94.3298L80.5882 96.2866C85.1905 97.2584 90.9844 97.9626 95.8613 96.8476C98.3149 96.2865 100.591 95.2528 102.358 93.5095C104.135 91.755 105.328 89.3487 105.716 86.1733C106.469 79.9981 103.505 75.8134 99.96 73.3125C98.1994 72.0706 96.2872 71.2338 94.588 70.7482C94.4018 70.6949 94.2166 70.6455 94.0331 70.6C97.6011 68.3345 99.6168 65.1647 100.008 61.4681C100.495 56.8549 98.4227 51.6758 94.2289 46.745C89.4543 41.1313 83.8932 40.3016 79.105 41.3877C75.3019 42.2504 71.997 44.3114 69.9022 46.0529C68.9303 42.6935 67.0988 39.1275 64.5853 36.5298C61.6272 33.4726 57.5998 31.66 52.9563 33.3751C46.8622 35.626 43.6621 38.348 42.3725 41.4489C41.5179 43.5038 41.5584 45.5965 41.9904 47.5981C38.1326 45.1557 33.7671 44.1814 29.855 44.6163C25.0671 45.1486 20.8715 47.8199 19.3033 52.572C18.3065 55.5928 18.1989 58.2571 18.7698 60.6398C19.3392 63.0163 20.5664 65.0416 22.1298 66.8164C24.6408 69.6666 28.1366 71.9807 31.3505 74.1082C32.0794 74.5907 32.7939 75.0636 33.479 75.531L34.6061 73.8788C33.8655 73.3736 33.1127 72.8746 32.3593 72.3752C29.1581 70.253 25.9479 68.1248 23.6306 65.4943C22.2225 63.896 21.1894 62.1548 20.7148 60.1738C20.2416 58.1991 20.3062 55.915 21.2026 53.1987C22.4722 49.3515 25.8804 47.0705 30.0759 46.6041C34.2802 46.1367 39.1873 47.5197 43.1633 50.9529C43.5089 51.2513 44.0127 51.2778 44.3876 51.0171C44.7626 50.7565 44.9133 50.275 44.754 49.8471C43.7405 47.1255 43.2391 44.5734 44.2192 42.2169C45.1959 39.8685 47.7714 37.4222 53.6493 35.2512C57.3195 33.8956 60.5478 35.2332 63.148 37.9205Z" fill="#757575"/>
<path fill-rule="evenodd" clip-rule="evenodd" d="M44.7877 83.4966C44.4728 83.7155 44.3109 84.0953 44.3709 84.474C45.5421 91.867 48.6056 95.3319 52.3112 96.2988C55.8778 97.2295 59.6095 95.7115 61.909 94.1399C62.1944 93.9449 62.3589 93.6163 62.3438 93.2709C62.3288 92.9255 62.1365 92.6124 61.8352 92.4429L45.849 83.4461C45.5148 83.258 45.1025 83.2776 44.7877 83.4966ZM59.3451 93.3364C57.4049 94.3199 54.9981 94.933 52.8162 94.3636C50.4732 93.7522 48.0372 91.6684 46.7547 86.2508L59.3451 93.3364Z" fill="#757575"/>
<path d="M152.219 80.5376C160.247 70.4326 172.345 64 185.877 64C206.815 64 224.318 79.3985 228.626 99.9722C228.764 100.634 228.889 101.3 229 101.972H121.5L121 99.9722H226.581C222.307 80.4535 205.649 66 185.877 66C173 66 161.462 72.1177 153.785 81.7817L152.941 82.8435L151.643 82.4528C148.62 81.5433 145.417 81.0545 142.099 81.0545C129.583 81.0545 118.651 88.02 112.892 98.365L110.485 98.634C116.377 87.0078 128.322 79.0545 142.099 79.0545C145.615 79.0545 149.012 79.5726 152.219 80.5376Z" fill="#757575"/>
<path d="M98.4785 114.647L100.96 124.318L122.754 118.726L125.962 131.227L104.167 136.819L107.066 148.117L126.238 143.198L125.962 145.334L105.626 150.551L101.733 135.379L123.527 129.787L121.314 121.16L99.5197 126.752L96.0442 113.206L121.622 106.644L119.34 97.7521L82.4117 107.227L96.5468 162.318L124 155.274L123.527 157.46L95.1066 164.752L79.9774 105.787L120.781 95.3178L124.056 108.084L98.4785 114.647Z" fill="#757575"/>
<path fill-rule="evenodd" clip-rule="evenodd" d="M92.0838 172.689C84.3246 165.42 74.0804 161 62.8506 161C42.5419 161 25.4568 175.455 20.4631 195.077C20.2949 195.738 20.1404 196.404 20 197.077H139.689V195.686C139.628 195.482 139.566 195.279 139.502 195.077C134.905 180.53 121.46 170 105.59 170C100.809 170 96.2488 170.956 92.0838 172.689ZM137.398 195.077C132.875 181.637 120.328 172 105.59 172C101.078 172 96.7784 172.901 92.8521 174.535L91.6593 175.032L90.7164 174.148C83.3045 167.205 73.5414 163 62.8506 163C43.7046 163 27.474 176.518 22.5297 195.077H137.398Z" fill="#757575"/>
<path d="M139.002 135.541C139.3 135.335 139.618 135.159 139.955 135.013C140.44 134.803 140.964 134.656 141.529 134.572C142.135 134.473 142.792 134.448 143.5 134.497L143.5 136.503C142.866 136.449 142.319 136.469 141.85 136.546L141.838 136.548L141.825 136.55C141.147 136.651 140.603 136.869 140.154 137.176C139.898 137.362 139.659 137.585 139.439 137.853L135.172 161.303L122.382 158.976L129.15 121.775L141.281 123.981L141.146 125.232C141.396 125.112 141.651 125.002 141.911 124.902C143.631 124.239 145.458 124.106 147.341 124.449C147.93 124.556 148.514 124.712 149.094 124.914C149.67 125.094 150.223 125.316 150.703 125.603L151.917 126.328L150.257 134.572L148.217 134.572L149.677 127.319C149.371 127.137 148.968 126.968 148.467 126.813C147.969 126.638 147.475 126.506 146.983 126.416C145.425 126.133 143.974 126.25 142.631 126.768C142.02 127.003 141.437 127.309 140.88 127.685C140.21 128.136 139.579 128.69 138.986 129.345C138.87 129.475 138.756 129.609 138.644 129.746L139.092 125.616L130.76 124.1L124.708 157.367L133.563 158.978L137.555 137.036C137.963 136.439 138.445 135.941 139.002 135.541Z" fill="#757575"/>
<path d="M157.377 148.047C157.553 147.873 157.739 147.708 157.934 147.553C158.606 147.019 159.387 146.603 160.276 146.304C161.45 145.894 162.831 145.693 164.42 145.701L164.41 147.701C162.989 147.693 161.845 147.875 160.937 148.192L160.924 148.197L160.912 148.201C160.032 148.496 159.341 148.921 158.796 149.457C158.46 149.803 158.166 150.204 157.918 150.669L157.768 180.089L142.518 180.011L142.754 133.746L157.201 133.82L157.338 135.86C157.831 135.45 158.353 135.078 158.903 134.746C160.79 133.608 162.918 133.068 165.227 133.08C165.95 133.083 166.681 133.146 167.417 133.266C168.145 133.359 168.835 133.505 169.441 133.736L170.763 134.239L170.611 140.587L168.58 141.859L168.729 135.605C168.314 135.447 167.78 135.327 167.13 135.246C166.479 135.138 165.841 135.083 165.216 135.08C163.237 135.069 161.477 135.529 159.936 136.459C159.051 136.993 158.242 137.656 157.511 138.448C156.968 139.035 156.468 139.694 156.009 140.423C155.895 140.609 155.784 140.798 155.676 140.991L155.33 135.81L144.744 135.756L144.528 178.021L155.778 178.079L155.92 150.201C156.293 149.378 156.779 148.66 157.377 148.047Z" fill="#757575"/>
<path fill-rule="evenodd" clip-rule="evenodd" d="M188.679 164.918L188.681 164.902C188.883 163.505 188.93 161.99 188.809 160.35L188.749 159.532C188.633 157.949 188.37 156.497 187.969 155.171L187.963 155.152L187.958 155.133C187.586 153.81 187.07 152.71 186.431 151.804L186.416 151.782L186.402 151.761C185.819 150.886 185.11 150.256 184.266 149.827C183.488 149.431 182.491 149.228 181.193 149.323C179.9 149.418 178.946 149.762 178.235 150.264C177.483 150.812 176.864 151.547 176.384 152.518C175.904 153.513 175.563 154.684 175.388 156.056L175.387 156.062C175.205 157.442 175.169 158.927 175.286 160.52L175.346 161.338C175.467 162.988 175.723 164.492 176.107 165.857C176.479 167.18 176.983 168.283 177.598 169.194C178.195 170.016 178.911 170.618 179.76 171.031C180.537 171.41 181.555 171.607 182.899 171.508C184.178 171.414 185.135 171.078 185.858 170.583C186.634 170.052 187.238 169.359 187.682 168.469C188.161 167.475 188.501 166.305 188.677 164.934L188.679 164.918ZM189.478 169.349C188.886 170.541 188.056 171.503 186.987 172.234C185.918 172.965 184.604 173.388 183.046 173.503C181.436 173.621 180.048 173.396 178.884 172.829C177.719 172.262 176.745 171.432 175.959 170.341C175.198 169.222 174.606 167.907 174.182 166.398C173.758 164.888 173.481 163.251 173.351 161.485L173.291 160.667C173.165 158.952 173.203 157.331 173.404 155.801C173.603 154.246 173.997 152.859 174.587 151.641C175.201 150.395 176.028 149.394 177.069 148.639C178.136 147.882 179.462 147.445 181.046 147.329C182.631 147.212 184.006 147.451 185.172 148.044C186.339 148.638 187.303 149.507 188.066 150.652C188.853 151.769 189.459 153.083 189.883 154.592C190.331 156.074 190.618 157.671 190.744 159.386L190.804 160.204C190.934 161.97 190.886 163.631 190.661 165.188C190.462 166.744 190.067 168.13 189.478 169.349Z" fill="#757575"/>
<path d="M192.989 181.821C190.317 183.214 187.251 184.012 183.836 184.263C180.419 184.514 177.26 184.173 174.391 183.189L174.384 183.187C171.576 182.212 169.122 180.722 167.048 178.714L167.038 178.704L167.028 178.694C165.002 176.677 163.409 174.278 162.241 171.524L162.238 171.518C161.07 168.739 160.376 165.713 160.137 162.455L160.077 161.637C159.836 158.356 160.08 155.259 160.833 152.361C161.584 149.439 162.812 146.827 164.531 144.554C166.264 142.262 168.463 140.429 171.098 139.054C173.77 137.632 176.838 136.82 180.257 136.569C183.676 136.318 186.839 136.673 189.712 137.684C192.543 138.656 195 140.146 197.052 142.162C199.112 144.157 200.723 146.562 201.894 149.346C202.235 150.151 202.536 150.978 202.796 151.828L201.735 156.172C201.404 154.005 200.843 151.989 200.052 150.125C198.977 147.567 197.511 145.389 195.656 143.593C193.827 141.795 191.626 140.455 189.055 139.573C186.482 138.666 183.598 138.329 180.403 138.563C177.209 138.798 174.418 139.551 172.03 140.823C169.641 142.069 167.673 143.715 166.126 145.761C164.579 147.806 163.46 150.173 162.77 152.861C162.077 155.523 161.844 158.4 162.071 161.49L162.131 162.308C162.356 165.373 163.006 168.184 164.082 170.743C165.156 173.275 166.608 175.453 168.439 177.277C170.294 179.073 172.495 180.413 175.04 181.297C177.612 182.179 180.495 182.503 183.689 182.268C186.884 182.034 189.676 181.294 192.065 180.048C194.454 178.802 196.422 177.156 197.969 175.11L197.406 178.714C196.108 179.928 194.634 180.964 192.989 181.821Z" fill="#757575"/>
<path fill-rule="evenodd" clip-rule="evenodd" d="M216.362 154.797C216.142 154.915 215.93 155.044 215.726 155.185C215.028 155.682 214.424 156.302 213.911 157.047L208.83 184.458L197.769 182.408L205.471 140.85L215.88 142.779L215.303 147.939C215.443 147.768 215.586 147.602 215.731 147.439C216.311 146.802 216.921 146.243 217.559 145.761C218.419 145.111 219.332 144.602 220.298 144.233C221.979 143.591 223.793 143.451 225.739 143.812C226.354 143.925 226.972 144.093 227.593 144.314C228.219 144.509 228.722 144.722 229.103 144.952L227.011 155.171C226.487 154.995 225.846 154.809 225.088 154.616C225.086 154.615 225.085 154.615 225.083 154.615C224.357 154.401 223.687 154.237 223.073 154.123C221.511 153.834 220.116 153.787 218.888 153.983C217.96 154.119 217.117 154.39 216.362 154.797ZM228.227 142.417C228.926 142.637 229.579 142.903 230.135 143.238L231.346 143.968L228.516 157.789L226.372 157.066C225.911 156.911 225.321 156.74 224.593 156.554L224.558 156.545L224.523 156.534C223.847 156.335 223.243 156.189 222.709 156.09C221.312 155.831 220.154 155.807 219.203 155.958L219.191 155.96L219.178 155.962C218.26 156.097 217.505 156.392 216.872 156.824C216.481 157.105 216.12 157.447 215.794 157.861L210.432 186.789L195.438 184.01L203.869 138.519L218.074 141.151L217.847 143.183C218.405 142.867 218.985 142.594 219.585 142.365C221.643 141.579 223.833 141.424 226.104 141.845C226.815 141.977 227.523 142.168 228.227 142.417Z" fill="#757575"/>
</g>
<defs>
<clipPath id="clip0_2907_26179">
<rect width="250" height="250" fill="white"/>
</clipPath>
</defs>
</svg>
